<svg width="1600" height="900" viewBox="0 0 1600 900" fill="none" xmlns="http://www.w3.org/2000/svg">
  <defs>
    <linearGradient id="bg" x1="0" y1="0" x2="1600" y2="900" gradientUnits="userSpaceOnUse">
      <stop stop-color="#F7F9FC"/>
      <stop offset="1" stop-color="#E8EEF6"/>
    </linearGradient>
    <linearGradient id="panel" x1="0" y1="0" x2="0" y2="1">
      <stop stop-color="#FFFFFF" stop-opacity="0.96"/>
      <stop offset="1" stop-color="#F8FAFC" stop-opacity="0.98"/>
    </linearGradient>
    <linearGradient id="hero" x1="0" y1="0" x2="1" y2="1">
      <stop stop-color="#111827"/>
      <stop offset="1" stop-color="#0F172A"/>
    </linearGradient>
    <filter id="shadow" x="-80" y="-80" width="1760" height="1060" filterUnits="userSpaceOnUse">
      <feDropShadow dx="0" dy="28" stdDeviation="36" flood-color="#0F172A" flood-opacity="0.12"/>
    </filter>
  </defs>

  <rect width="1600" height="900" fill="url(#bg)"/>
  <circle cx="1320" cy="140" r="180" fill="#FFFFFF" fill-opacity="0.7"/>
  <circle cx="240" cy="760" r="220" fill="#DCE5F1" fill-opacity="0.65"/>

  <g filter="url(#shadow)">
    <rect x="92" y="82" width="1416" height="736" rx="34" fill="url(#panel)"/>
  </g>

  <rect x="128" y="120" width="220" height="660" rx="28" fill="#FFFFFF" stroke="#E2E8F0"/>
  <rect x="154" y="152" width="168" height="52" rx="18" fill="#F8FAFC"/>
  <rect x="154" y="236" width="120" height="14" rx="7" fill="#CBD5E1"/>
  <rect x="154" y="268" width="140" height="14" rx="7" fill="#E2E8F0"/>
  <rect x="154" y="336" width="138" height="44" rx="18" fill="#0F172A"/>
  <rect x="154" y="404" width="138" height="44" rx="18" fill="#F8FAFC" stroke="#E2E8F0"/>
  <rect x="154" y="472" width="138" height="44" rx="18" fill="#F8FAFC" stroke="#E2E8F0"/>
  <rect x="154" y="650" width="168" height="54" rx="18" fill="#F8FAFC" stroke="#E2E8F0"/>

  <rect x="384" y="120" width="732" height="210" rx="30" fill="#FFFFFF" stroke="#E2E8F0"/>
  <rect x="420" y="156" width="126" height="24" rx="12" fill="#EEF2F7"/>
  <rect x="420" y="210" width="296" height="24" rx="12" fill="#0F172A" fill-opacity="0.9"/>
  <rect x="420" y="254" width="392" height="16" rx="8" fill="#CBD5E1"/>
  <rect x="420" y="294" width="164" height="22" rx="11" fill="#0F172A"/>
  <rect x="602" y="294" width="210" height="22" rx="11" fill="#E2E8F0"/>
  <rect x="860" y="156" width="220" height="136" rx="24" fill="#F8FAFC" stroke="#E2E8F0"/>
  <rect x="890" y="192" width="110" height="18" rx="9" fill="#0F172A" fill-opacity="0.85"/>
  <rect x="890" y="224" width="150" height="14" rx="7" fill="#CBD5E1"/>
  <rect x="890" y="252" width="128" height="14" rx="7" fill="#E2E8F0"/>

  <rect x="384" y="356" width="352" height="184" rx="28" fill="#FFFFFF" stroke="#E2E8F0"/>
  <rect x="764" y="356" width="352" height="184" rx="28" fill="#FFFFFF" stroke="#E2E8F0"/>
  <rect x="420" y="392" width="144" height="18" rx="9" fill="#CBD5E1"/>
  <rect x="420" y="430" width="220" height="22" rx="11" fill="#0F172A" fill-opacity="0.92"/>
  <rect x="420" y="472" width="180" height="14" rx="7" fill="#E2E8F0"/>
  <rect x="800" y="392" width="132" height="18" rx="9" fill="#CBD5E1"/>
  <rect x="800" y="430" width="204" height="22" rx="11" fill="#0F172A" fill-opacity="0.92"/>
  <rect x="800" y="472" width="164" height="14" rx="7" fill="#E2E8F0"/>

  <rect x="384" y="566" width="352" height="214" rx="28" fill="#FFFFFF" stroke="#E2E8F0"/>
  <rect x="764" y="566" width="352" height="214" rx="28" fill="#FFFFFF" stroke="#E2E8F0"/>
  <rect x="420" y="602" width="120" height="18" rx="9" fill="#CBD5E1"/>
  <rect x="420" y="640" width="272" height="16" rx="8" fill="#E2E8F0"/>
  <rect x="420" y="680" width="280" height="18" rx="9" fill="#0F172A" fill-opacity="0.12"/>
  <rect x="420" y="720" width="242" height="18" rx="9" fill="#0F172A"/>
  <rect x="800" y="602" width="160" height="18" rx="9" fill="#CBD5E1"/>
  <rect x="800" y="640" width="194" height="16" rx="8" fill="#E2E8F0"/>
  <rect x="800" y="688" width="248" height="72" rx="24" fill="url(#hero)"/>

  <rect x="1146" y="120" width="326" height="660" rx="30" fill="#FFFFFF" stroke="#E2E8F0"/>
  <rect x="1182" y="156" width="136" height="20" rx="10" fill="#0F172A"/>
  <rect x="1182" y="206" width="254" height="96" rx="22" fill="#F8FAFC" stroke="#E2E8F0"/>
  <rect x="1210" y="236" width="158" height="18" rx="9" fill="#0F172A" fill-opacity="0.92"/>
  <rect x="1210" y="268" width="186" height="14" rx="7" fill="#CBD5E1"/>
  <rect x="1182" y="328" width="254" height="96" rx="22" fill="#F8FAFC" stroke="#E2E8F0"/>
  <rect x="1210" y="358" width="146" height="18" rx="9" fill="#0F172A" fill-opacity="0.92"/>
  <rect x="1210" y="390" width="176" height="14" rx="7" fill="#CBD5E1"/>
  <rect x="1182" y="450" width="254" height="132" rx="24" fill="#0F172A"/>
  <rect x="1210" y="484" width="166" height="18" rx="9" fill="#FFFFFF"/>
  <rect x="1210" y="520" width="154" height="14" rx="7" fill="#94A3B8"/>
  <rect x="1210" y="556" width="194" height="10" rx="5" fill="#FFFFFF" fill-opacity="0.16"/>
  <rect x="1210" y="556" width="122" height="10" rx="5" fill="#FFFFFF"/>

  <text x="420" y="744" fill="#FFFFFF" font-family="Inter, Noto Sans SC, sans-serif" font-size="34" font-weight="800">Local-first multi-currency student ledger</text>
</svg>
